<svg xmlns="http://www.w3.org/2000/svg" viewBox="0 0 64 64" fill="none">
  <defs>
    <linearGradient id="g" x1="0%" y1="0%" x2="100%" y2="100%">
      <stop offset="0%" style="stop-color:#22c55e;stop-opacity:1" />
      <stop offset="100%" style="stop-color:#059669;stop-opacity:1" />
    </linearGradient>
  </defs>
  <path d="M32 4C18 4 8 18 8 32c0 10 6 18 14 22 2-6 4-14 10-20s14-10 20-10c2 0 4 0 4-2C56 12 44 4 32 4z" fill="url(#g)"/>
  <path d="M32 58c0-12 2-20 8-28" stroke="white" stroke-width="2" stroke-linecap="round" opacity="0.6"/>
  <path d="M32 44c-4-4-8-4-12-2" stroke="white" stroke-width="1.5" stroke-linecap="round" opacity="0.4"/>
  <path d="M32 34c4-4 8-6 14-6" stroke="white" stroke-width="1.5" stroke-linecap="round" opacity="0.4"/>
</svg>
